<?xml version="1.0" encoding="UTF-8" standalone="no"?>
<!-- Created with Inkscape (http://www.inkscape.org/) -->

<svg
   xmlns:dc="http://purl.org/dc/elements/1.1/"
   xmlns:cc="http://creativecommons.org/ns#"
   xmlns:rdf="http://www.w3.org/1999/02/22-rdf-syntax-ns#"
   xmlns:svg="http://www.w3.org/2000/svg"
   xmlns="http://www.w3.org/2000/svg"
   xmlns:xlink="http://www.w3.org/1999/xlink"
   xmlns:sodipodi="http://sodipodi.sourceforge.net/DTD/sodipodi-0.dtd"
   xmlns:inkscape="http://www.inkscape.org/namespaces/inkscape"
   width="26.458334mm"
   height="7.4046888mm"
   viewBox="0 0 26.458334 7.4046892"
   version="1.1"
   id="svg8"
   inkscape:version="0.92.4 (5da689c313, 2019-01-14)"
   sodipodi:docname="login.svg">
  <title
     id="title957">Auth</title>
  <defs
     id="defs2">
    <linearGradient
       inkscape:collect="always"
       id="linearGradient4401">
      <stop
         style="stop-color:#808080;stop-opacity:1;"
         offset="0"
         id="stop4397" />
      <stop
         id="stop4405"
         offset="0.7435897"
         style="stop-color:#b3b3b3;stop-opacity:1" />
      <stop
         style="stop-color:#808080;stop-opacity:0;"
         offset="1"
         id="stop4399" />
    </linearGradient>
    <linearGradient
       inkscape:collect="always"
       id="linearGradient144">
      <stop
         style="stop-color:#b3b3b3;stop-opacity:1;"
         offset="0"
         id="stop140" />
      <stop
         id="stop199"
         offset="0.41609159"
         style="stop-color:#808080;stop-opacity:1" />
      <stop
         style="stop-color:#cccccc;stop-opacity:1"
         offset="0.69348598"
         id="stop201" />
      <stop
         style="stop-color:#b3b3b3;stop-opacity:0;"
         offset="1"
         id="stop142" />
    </linearGradient>
    <linearGradient
       inkscape:collect="always"
       id="linearGradient491">
      <stop
         style="stop-color:#666666;stop-opacity:1"
         offset="0"
         id="stop487" />
      <stop
         id="stop507"
         offset="0.22093582"
         style="stop-color:#999999;stop-opacity:1" />
      <stop
         id="stop505"
         offset="0.28709015"
         style="stop-color:#808080;stop-opacity:1" />
      <stop
         id="stop497"
         offset="0.40669098"
         style="stop-color:#adadad;stop-opacity:1;" />
      <stop
         id="stop495"
         offset="0.49358132"
         style="stop-color:#cccccc;stop-opacity:1" />
      <stop
         style="stop-color:#808080;stop-opacity:1"
         offset="0.61263639"
         id="stop499" />
      <stop
         id="stop501"
         offset="0.67579585"
         style="stop-color:#999999;stop-opacity:1" />
      <stop
         style="stop-color:#7d7d7d;stop-opacity:1;"
         offset="0.73562503"
         id="stop503" />
      <stop
         style="stop-color:#666666;stop-opacity:1"
         offset="1"
         id="stop489" />
    </linearGradient>
    <linearGradient
       inkscape:collect="always"
       id="linearGradient833">
      <stop
         style="stop-color:#666666;stop-opacity:1"
         offset="0"
         id="stop829" />
      <stop
         id="stop834"
         offset="0.35640863"
         style="stop-color:#b3b3b3;stop-opacity:1" />
      <stop
         id="stop832"
         offset="0.61825842"
         style="stop-color:#666666;stop-opacity:1" />
      <stop
         id="stop830"
         offset="0.66334724"
         style="stop-color:#b3b3b3;stop-opacity:1" />
      <stop
         id="stop837"
         offset="0.78939712"
         style="stop-color:#999999;stop-opacity:1" />
      <stop
         style="stop-color:#808080;stop-opacity:1"
         offset="1"
         id="stop831" />
    </linearGradient>
    <linearGradient
       inkscape:collect="always"
       xlink:href="#linearGradient833"
       id="linearGradient35"
       gradientUnits="userSpaceOnUse"
       x1="-417.1973"
       y1="131.10347"
       x2="-416.90506"
       y2="120.19334" />
    <linearGradient
       id="linearGradient3084"
       y2="11.711"
       xlink:href="#linearGradient2780"
       gradientUnits="userSpaceOnUse"
       y1="1.6246001"
       gradientTransform="matrix(1.632,0,0,2.4361,-0.051304,2.0097)"
       x2="35.995998"
       x1="35.995998" />
    <linearGradient
       id="linearGradient2780">
      <stop
         id="stop2782"
         style="stop-color:#ffffff"
         offset="0" />
      <stop
         id="stop2784"
         style="stop-color:#ffffff;stop-opacity:0"
         offset="1" />
    </linearGradient>
    <linearGradient
       id="linearGradient2951"
       y2="6.0918002"
       xlink:href="#linearGradient2780"
       gradientUnits="userSpaceOnUse"
       y1="11.17"
       gradientTransform="matrix(1.6375,0,0,2.4742,-0.051304,-0.012826)"
       x2="39.723999"
       x1="38.362999" />
    <radialGradient
       id="radialGradient2869"
       xlink:href="#linearGradient2834"
       gradientUnits="userSpaceOnUse"
       cy="8.9813995"
       cx="21.594999"
       gradientTransform="matrix(2.3666,0,0,1.7265,-0.40436,-0.012826)"
       r="6.0679002" />
    <linearGradient
       id="linearGradient2834">
      <stop
         id="stop2836"
         style="stop-color:#ffe19c"
         offset="0" />
      <stop
         id="stop2838"
         style="stop-color:#b79e4f;stop-opacity:0"
         offset="1" />
    </linearGradient>
    <radialGradient
       id="radialGradient2873"
       xlink:href="#linearGradient2834"
       gradientUnits="userSpaceOnUse"
       cy="8.9813995"
       cx="21.594999"
       gradientTransform="matrix(-2.3666,0,0,1.7265,129.12,-0.11292)"
       r="6.0679002" />
    <linearGradient
       id="linearGradient2943"
       y2="7.5862999"
       xlink:href="#linearGradient2780"
       gradientUnits="userSpaceOnUse"
       y1="9.5746002"
       gradientTransform="matrix(1.632,0,0,2.4825,-0.051304,-0.012826)"
       x2="38.782001"
       x1="38.782001" />
    <linearGradient
       id="linearGradient2935"
       y2="-13.17"
       xlink:href="#linearGradient2780"
       gradientUnits="userSpaceOnUse"
       y1="24.385"
       gradientTransform="matrix(2.2102,0,0,1.9643,-1.5159,-2.1713)"
       x2="33.183998"
       x1="33.183998" />
    <linearGradient
       id="linearGradient2895"
       y2="-13.17"
       xlink:href="#linearGradient2780"
       gradientUnits="userSpaceOnUse"
       y1="24.385"
       gradientTransform="matrix(2.1611,0,0,1.8045,-0.051304,2.2671)"
       x2="33.183998"
       x1="33.183998" />
    <radialGradient
       id="radialGradient2955"
       xlink:href="#linearGradient2834"
       gradientUnits="userSpaceOnUse"
       cy="8.9813995"
       cx="21.594999"
       gradientTransform="matrix(3.085,0,0,2.0529,-15.985,-3.1493)"
       r="6.0679002" />
    <radialGradient
       id="radialGradient2959"
       xlink:href="#linearGradient2834"
       gradientUnits="userSpaceOnUse"
       cy="8.9813995"
       cx="21.594999"
       gradientTransform="matrix(-2.8463,0,0,2.0879,139.53,-3.5862)"
       r="6.0679002" />
    <radialGradient
       id="radialGradient3063"
       xlink:href="#linearGradient3057"
       gradientUnits="userSpaceOnUse"
       cy="231.98"
       cx="8.0178003"
       gradientTransform="scale(3.7417,0.26726)"
       r="7.4833002" />
    <linearGradient
       id="linearGradient3057">
      <stop
         id="stop3059"
         style="stop-color:#282828"
         offset="0" />
      <stop
         id="stop3061"
         style="stop-color:#282828;stop-opacity:0"
         offset="1" />
    </linearGradient>
    <radialGradient
       id="radialGradient383"
       xlink:href="#linearGradient3057"
       gradientUnits="userSpaceOnUse"
       cy="231.98"
       cx="8.0178003"
       gradientTransform="scale(3.7417,0.26726)"
       r="7.4833002" />
    <radialGradient
       id="radialGradient391"
       xlink:href="#linearGradient3057"
       gradientUnits="userSpaceOnUse"
       cy="231.98"
       cx="8.0178003"
       gradientTransform="scale(3.7417,0.26726)"
       r="7.4833002" />
    <linearGradient
       id="linearGradient2707"
       y2="52.609001"
       spreadMethod="reflect"
       gradientUnits="userSpaceOnUse"
       y1="52.609001"
       gradientTransform="matrix(2.1518,0,0,1.7708,-0.051304,4.3518)"
       x2="44.723999"
       x1="29.614">
      <stop
         id="stop2703"
         style="stop-color:#a47c44"
         offset="0" />
      <stop
         id="stop2770"
         style="stop-color:#baa363"
         offset=".75" />
      <stop
         id="stop2705"
         style="stop-color:#d6c795"
         offset="1" />
    </linearGradient>
    <linearGradient
       id="linearGradient2732"
       y2="47.296001"
       xlink:href="#linearGradient2713"
       spreadMethod="reflect"
       gradientUnits="userSpaceOnUse"
       y1="46.356998"
       gradientTransform="matrix(2.2188,0,0,1.826,-0.051304,-1.0128)"
       x2="29.094"
       x1="29.094" />
    <linearGradient
       id="linearGradient2713">
      <stop
         id="stop2715"
         style="stop-color:#000000"
         offset="0" />
      <stop
         id="stop2717"
         style="stop-color:#ffffff"
         offset="1" />
    </linearGradient>
    <linearGradient
       id="linearGradient2736"
       y2="45.888"
       xlink:href="#linearGradient2713"
       spreadMethod="reflect"
       gradientUnits="userSpaceOnUse"
       y1="44.011002"
       gradientTransform="matrix(2.2188,0,0,1.826,-0.051304,-1.0128)"
       x2="24.606001"
       x1="24.261" />
    <linearGradient
       id="linearGradient3086"
       y2="62.779999"
       xlink:href="#linearGradient2713"
       spreadMethod="reflect"
       gradientUnits="userSpaceOnUse"
       y1="60.433998"
       gradientTransform="matrix(2.2188,0,0,1.826,-0.051304,-1.0128)"
       x2="17.424999"
       x1="17.681999" />
    <radialGradient
       id="radialGradient2811"
       xlink:href="#linearGradient2780"
       gradientUnits="userSpaceOnUse"
       cy="22.546"
       cx="20.361"
       gradientTransform="matrix(0.43334,0,0,1.435,6.4099,-0.11314)"
       r="15.157" />
    <radialGradient
       id="radialGradient2813"
       xlink:href="#linearGradient2780"
       gradientUnits="userSpaceOnUse"
       cy="22.546"
       cx="20.361"
       gradientTransform="matrix(0.50007,0,0,1.6752,5.003,-5.1081)"
       r="15.157" />
    <radialGradient
       id="radialGradient2815"
       xlink:href="#linearGradient2780"
       gradientUnits="userSpaceOnUse"
       cy="22.546"
       cx="20.361"
       gradientTransform="matrix(0.6214,0,0,1.8821,2.3888,-9.4094)"
       r="15.157" />
    <radialGradient
       id="radialGradient442"
       xlink:href="#linearGradient2780"
       gradientUnits="userSpaceOnUse"
       cy="22.546"
       cx="20.361"
       gradientTransform="matrix(0.43334,0,0,1.435,6.4099,-0.11314)"
       r="15.157" />
    <radialGradient
       id="radialGradient450"
       xlink:href="#linearGradient2780"
       gradientUnits="userSpaceOnUse"
       cy="22.546"
       cx="20.361"
       gradientTransform="matrix(0.50007,0,0,1.6752,5.003,-5.1081)"
       r="15.157" />
    <radialGradient
       id="radialGradient458"
       xlink:href="#linearGradient2780"
       gradientUnits="userSpaceOnUse"
       cy="22.546"
       cx="20.361"
       gradientTransform="matrix(0.6214,0,0,1.8821,2.3888,-9.4094)"
       r="15.157" />
    <linearGradient
       id="linearGradient3080"
       y2="44.980999"
       xlink:href="#linearGradient2780"
       gradientUnits="userSpaceOnUse"
       y1="68.68"
       gradientTransform="matrix(2.1361,0,0,1.826,2.3487,-1.0128)"
       x2="26.974001"
       x1="26.974001" />
    <radialGradient
       r="7.4833002"
       cy="231.98"
       cx="8.0178003"
       gradientTransform="scale(3.7417,0.26726)"
       gradientUnits="userSpaceOnUse"
       id="radialGradient508"
       xlink:href="#linearGradient3057"
       inkscape:collect="always" />
    <radialGradient
       r="7.4833002"
       cy="231.98"
       cx="8.0178003"
       gradientTransform="scale(3.7417,0.26726)"
       gradientUnits="userSpaceOnUse"
       id="radialGradient510"
       xlink:href="#linearGradient3057"
       inkscape:collect="always" />
    <radialGradient
       r="15.157"
       cy="22.546"
       cx="20.361"
       gradientTransform="matrix(0.43334,0,0,1.435,6.4099,-0.11314)"
       gradientUnits="userSpaceOnUse"
       id="radialGradient512"
       xlink:href="#linearGradient2780"
       inkscape:collect="always" />
    <radialGradient
       r="15.157"
       cy="22.546"
       cx="20.361"
       gradientTransform="matrix(0.50007,0,0,1.6752,5.003,-5.1081)"
       gradientUnits="userSpaceOnUse"
       id="radialGradient514"
       xlink:href="#linearGradient2780"
       inkscape:collect="always" />
    <radialGradient
       r="15.157"
       cy="22.546"
       cx="20.361"
       gradientTransform="matrix(0.6214,0,0,1.8821,2.3888,-9.4094)"
       gradientUnits="userSpaceOnUse"
       id="radialGradient516"
       xlink:href="#linearGradient2780"
       inkscape:collect="always" />
    <linearGradient
       inkscape:collect="always"
       xlink:href="#linearGradient491"
       id="linearGradient493"
       x1="-501.42468"
       y1="62.455235"
       x2="-501.50702"
       y2="74.459038"
       gradientUnits="userSpaceOnUse"
       gradientTransform="translate(2.2078308,1.9191555)" />
    <linearGradient
       inkscape:collect="always"
       xlink:href="#linearGradient491"
       id="linearGradient584"
       gradientUnits="userSpaceOnUse"
       gradientTransform="translate(2.2078308,1.9191555)"
       x1="-501.42468"
       y1="62.455235"
       x2="-501.50702"
       y2="74.459038" />
    <linearGradient
       inkscape:collect="always"
       xlink:href="#linearGradient491"
       id="linearGradient586"
       gradientUnits="userSpaceOnUse"
       gradientTransform="translate(2.2078308,1.9191555)"
       x1="-501.42468"
       y1="62.455235"
       x2="-501.50702"
       y2="74.459038" />
    <linearGradient
       inkscape:collect="always"
       xlink:href="#linearGradient491"
       id="linearGradient588"
       gradientUnits="userSpaceOnUse"
       gradientTransform="translate(2.2078308,1.9191555)"
       x1="-501.42468"
       y1="62.455235"
       x2="-501.50702"
       y2="74.459038" />
    <linearGradient
       inkscape:collect="always"
       xlink:href="#linearGradient491"
       id="linearGradient590"
       gradientUnits="userSpaceOnUse"
       gradientTransform="translate(2.2078308,1.9191555)"
       x1="-501.42468"
       y1="62.455235"
       x2="-501.50702"
       y2="74.459038" />
    <linearGradient
       inkscape:collect="always"
       xlink:href="#linearGradient491"
       id="linearGradient592"
       gradientUnits="userSpaceOnUse"
       gradientTransform="translate(2.2078308,1.9191555)"
       x1="-501.42468"
       y1="62.455235"
       x2="-501.50702"
       y2="74.459038" />
    <linearGradient
       inkscape:collect="always"
       xlink:href="#linearGradient491"
       id="linearGradient594"
       gradientUnits="userSpaceOnUse"
       gradientTransform="translate(2.2078308,1.9191555)"
       x1="-501.42468"
       y1="62.455235"
       x2="-501.50702"
       y2="74.459038" />
    <linearGradient
       inkscape:collect="always"
       xlink:href="#linearGradient144"
       id="linearGradient146"
       x1="-500.33646"
       y1="77.888397"
       x2="-500.33646"
       y2="62.380806"
       gradientUnits="userSpaceOnUse" />
    <linearGradient
       inkscape:collect="always"
       xlink:href="#linearGradient144"
       id="linearGradient620"
       gradientUnits="userSpaceOnUse"
       x1="-500.33646"
       y1="77.888397"
       x2="-500.33646"
       y2="62.380806" />
    <linearGradient
       inkscape:collect="always"
       xlink:href="#linearGradient144"
       id="linearGradient622"
       gradientUnits="userSpaceOnUse"
       x1="-500.33646"
       y1="77.888397"
       x2="-500.33646"
       y2="62.380806" />
    <linearGradient
       inkscape:collect="always"
       xlink:href="#linearGradient144"
       id="linearGradient624"
       gradientUnits="userSpaceOnUse"
       x1="-500.33646"
       y1="77.888397"
       x2="-500.33646"
       y2="62.380806" />
    <linearGradient
       inkscape:collect="always"
       xlink:href="#linearGradient144"
       id="linearGradient626"
       gradientUnits="userSpaceOnUse"
       x1="-500.33646"
       y1="77.888397"
       x2="-500.33646"
       y2="62.380806" />
    <linearGradient
       inkscape:collect="always"
       xlink:href="#linearGradient144"
       id="linearGradient628"
       gradientUnits="userSpaceOnUse"
       x1="-500.33646"
       y1="77.888397"
       x2="-500.33646"
       y2="62.380806" />
    <linearGradient
       inkscape:collect="always"
       xlink:href="#linearGradient4401"
       id="linearGradient4403"
       x1="-497.92316"
       y1="76.1623"
       x2="-497.92316"
       y2="64.960464"
       gradientUnits="userSpaceOnUse" />
    <linearGradient
       inkscape:collect="always"
       xlink:href="#linearGradient4401"
       id="linearGradient4462"
       gradientUnits="userSpaceOnUse"
       x1="-497.92316"
       y1="76.1623"
       x2="-497.92316"
       y2="64.960464" />
    <linearGradient
       inkscape:collect="always"
       xlink:href="#linearGradient4401"
       id="linearGradient4464"
       gradientUnits="userSpaceOnUse"
       x1="-497.92316"
       y1="76.1623"
       x2="-497.92316"
       y2="64.960464" />
    <linearGradient
       inkscape:collect="always"
       xlink:href="#linearGradient4401"
       id="linearGradient4466"
       gradientUnits="userSpaceOnUse"
       x1="-497.92316"
       y1="76.1623"
       x2="-497.92316"
       y2="64.960464" />
    <linearGradient
       inkscape:collect="always"
       xlink:href="#linearGradient4401"
       id="linearGradient4468"
       gradientUnits="userSpaceOnUse"
       x1="-497.92316"
       y1="76.1623"
       x2="-497.92316"
       y2="64.960464" />
    <linearGradient
       inkscape:collect="always"
       xlink:href="#linearGradient4401"
       id="linearGradient4470"
       gradientUnits="userSpaceOnUse"
       x1="-497.92316"
       y1="76.1623"
       x2="-497.92316"
       y2="64.960464" />
  </defs>
  <sodipodi:namedview
     id="base"
     pagecolor="#ffffff"
     bordercolor="#666666"
     borderopacity="1.0"
     inkscape:pageopacity="0.0"
     inkscape:pageshadow="2"
     inkscape:zoom="17.279999"
     inkscape:cx="49.999997"
     inkscape:cy="13.993111"
     inkscape:document-units="mm"
     inkscape:current-layer="layer1"
     showgrid="false"
     fit-margin-top="0"
     fit-margin-left="0"
     fit-margin-right="0"
     fit-margin-bottom="0"
     inkscape:window-width="1920"
     inkscape:window-height="1018"
     inkscape:window-x="0"
     inkscape:window-y="33"
     inkscape:window-maximized="1"
     inkscape:snap-global="false"
     showguides="false" />
  <metadata
     id="metadata5">
    <rdf:RDF>
      <cc:Work
         rdf:about="">
        <dc:format>image/svg+xml</dc:format>
        <dc:type
           rdf:resource="http://purl.org/dc/dcmitype/StillImage" />
        <dc:title>Auth</dc:title>
        <dc:date>2021-11-12T15:00:00</dc:date>
        <dc:source>https://renexo.com.br</dc:source>
      </cc:Work>
    </rdf:RDF>
  </metadata>
  <g
     inkscape:label="Camada 1"
     inkscape:groupmode="layer"
     id="layer1"
     transform="translate(532.30508,-57.327856)">
    <g
       id="g4460"
       inkscape:export-xdpi="96"
       inkscape:export-ydpi="96"
       transform="matrix(1.0007217,0,0,1.0007217,0.38414572,-0.04671518)">
      <g
         transform="matrix(0.57434054,0,0,0.57434054,-228.29199,20.981146)"
         id="text41"
         style="font-style:normal;font-weight:normal;font-size:11.66551781px;line-height:1.25;font-family:sans-serif;letter-spacing:0px;word-spacing:0px;fill:url(#linearGradient594);fill-opacity:1;stroke:none;stroke-width:0.08154058"
         aria-label="Login">
        <path
           id="path513"
           style="font-style:normal;font-variant:normal;font-weight:bold;font-stretch:normal;font-family:sans-serif;-inkscape-font-specification:'sans-serif Bold';fill:url(#linearGradient584);fill-opacity:1;stroke-width:0.08154058"
           d="m -517.51105,65.129039 h 2.19298 v 6.846657 h 3.85053 v 1.657551 h -6.04351 z"
           inkscape:connector-curvature="0" />
        <path
           id="path515"
           style="font-style:normal;font-variant:normal;font-weight:bold;font-stretch:normal;font-family:sans-serif;-inkscape-font-specification:'sans-serif Bold';fill:url(#linearGradient586);fill-opacity:1;stroke-width:0.08154058"
           d="m -507.13854,68.558064 q -0.67783,0 -1.03668,0.48986 -0.35315,0.484165 -0.35315,1.401229 0,0.917065 0.35315,1.406926 0.35885,0.484164 1.03668,0.484164 0.66644,0 1.0196,-0.484164 0.35315,-0.489861 0.35315,-1.406926 0,-0.917064 -0.35315,-1.401229 -0.35316,-0.48986 -1.0196,-0.48986 z m 0,-1.45819 q 1.64616,0 2.56892,0.888584 0.92846,0.888585 0.92846,2.460695 0,1.572111 -0.92846,2.460696 -0.92276,0.888584 -2.56892,0.888584 -1.65185,0 -2.58601,-0.888584 -0.92845,-0.888585 -0.92845,-2.460696 0,-1.57211 0.92845,-2.460695 0.93416,-0.888584 2.58601,-0.888584 z"
           inkscape:connector-curvature="0" />
        <path
           id="path517"
           style="font-style:normal;font-variant:normal;font-weight:bold;font-stretch:normal;font-family:sans-serif;-inkscape-font-specification:'sans-serif Bold';fill:url(#linearGradient588);fill-opacity:1;stroke-width:0.08154058"
           d="m -497.8141,72.550997 q -0.42151,0.558213 -0.92846,0.820232 -0.50694,0.262018 -1.17338,0.262018 -1.16769,0 -1.93096,-0.917064 -0.76328,-0.922761 -0.76328,-2.346774 0,-1.42971 0.76328,-2.341078 0.76327,-0.917065 1.93096,-0.917065 0.66644,0 1.17338,0.262018 0.50695,0.262019 0.92846,0.825928 v -0.945545 h 2.05058 v 5.735926 q 0,1.537935 -0.97402,2.346774 -0.96833,0.814536 -2.81385,0.814536 -0.59809,0 -1.1563,-0.09114 -0.55822,-0.09114 -1.12213,-0.279106 v -1.589199 q 0.53543,0.307587 1.04808,0.455684 0.51264,0.153793 1.03098,0.153793 1.00251,0 1.46959,-0.438596 0.46707,-0.438596 0.46707,-1.372749 z m -1.34427,-3.970149 q -0.63226,0 -0.98541,0.467076 -0.35316,0.467077 -0.35316,1.321485 0,0.877192 0.34176,1.332876 0.34177,0.449988 0.99681,0.449988 0.63796,0 0.99112,-0.467076 0.35315,-0.467076 0.35315,-1.315788 0,-0.854408 -0.35315,-1.321485 -0.35316,-0.467076 -0.99112,-0.467076 z"
           inkscape:connector-curvature="0" />
        <path
           id="path519"
           style="font-style:normal;font-variant:normal;font-weight:bold;font-stretch:normal;font-family:sans-serif;-inkscape-font-specification:'sans-serif Bold';fill:url(#linearGradient590);fill-opacity:1;stroke-width:0.08154058"
           d="m -493.79268,67.253667 h 2.03918 v 6.37958 h -2.03918 z m 0,-2.483479 h 2.03918 v 1.663248 h -2.03918 z"
           inkscape:connector-curvature="0" />
        <path
           id="path521"
           style="font-style:normal;font-variant:normal;font-weight:bold;font-stretch:normal;font-family:sans-serif;-inkscape-font-specification:'sans-serif Bold';fill:url(#linearGradient592);fill-opacity:1;stroke-width:0.08154058"
           d="m -483.3689,69.748539 v 3.884708 h -2.05058 v -0.632262 -2.341078 q 0,-0.825927 -0.0399,-1.13921 -0.0342,-0.313283 -0.12531,-0.461381 -0.11962,-0.199362 -0.32467,-0.307587 -0.20506,-0.113921 -0.46708,-0.113921 -0.63796,0 -1.00251,0.495557 -0.36454,0.489861 -0.36454,1.361357 v 3.138525 h -2.03919 v -6.37958 h 2.03919 v 0.934153 q 0.46138,-0.558213 0.97972,-0.820232 0.51834,-0.267714 1.1449,-0.267714 1.10504,0 1.67464,0.67783 0.57531,0.677831 0.57531,1.970835 z"
           inkscape:connector-curvature="0" />
      </g>
      <g
         id="g312"
         transform="matrix(0.05392663,0,0,0.05392663,-532.73647,57.225341)">
        <g
           id="layer2">
          <path
             id="rect2723"
             style="fill:#282828;fill-rule:evenodd"
             d="M 64.359,2 C 44.287,2 28.128,18.159 28.128,38.231 V 78.487 H 38.192 V 38.231 c 0,-14.497 11.671,-26.167 26.167,-26.167 14.496,0 26.167,11.67 26.167,26.167 V 78.487 H 100.59 V 38.231 C 100.59,18.159 84.431,2 64.359,2 Z"
             inkscape:connector-curvature="0" />
          <path
             id="path3082"
             style="opacity:0.65;fill:url(#linearGradient3084);fill-rule:evenodd"
             d="m 64.359,4.6293 c -18.957,0 -34.218,16.307 -34.218,34.909 v 37.528 c 0,14.09 8.776,26.054 21.261,31.044 -8.945,-4.07 -15.222,-12.796 -15.222,-23.143 v -47.404 c 0,-14.225 11.67,-26.621 26.166,-26.621 h 4.026 c 14.496,0 26.167,12.396 26.167,26.621 v 47.404 c 0,10.347 -6.277,19.073 -15.222,23.143 12.484,-4.99 21.26,-16.954 21.26,-31.044 v -37.528 c 0,-18.602 -15.261,-34.909 -34.218,-34.909 z"
             inkscape:connector-curvature="0" />
          <path
             id="path2931"
             style="opacity:0.5;fill:url(#linearGradient2951);fill-rule:evenodd"
             d="m 64.359,2.8539 c -19.51,0 -35.217,15.601 -35.217,34.98 v 39.095 c 0,14.677 9.033,27.141 21.881,32.341 -9.206,-4.24 -15.666,-13.332 -15.666,-24.11 v -49.384 c 0,-14.819 12.011,-29.082 26.931,-29.082 l 4.143,-10e-5 c 14.919,0 26.93,14.263 26.93,29.082 v 49.384 c 0,10.778 -6.46,19.87 -15.666,24.11 12.848,-5.2 21.881,-17.664 21.881,-32.341 v -39.095 c 0,-19.379 -15.707,-34.98 -35.217,-34.98 z"
             inkscape:connector-curvature="0" />
          <path
             id="path2861"
             style="opacity:0.8;fill:url(#radialGradient2869);fill-rule:evenodd"
             d="m 49.471,12.003 c -5.439,3.405 -8.499,9.21 -7.9,11.145 0.646,2.085 4.467,-7.233 15.283,-10.119 8.341,-2.225 0,-5.6488 -7.383,-1.026 z"
             inkscape:connector-curvature="0" />
          <path
             id="path2871"
             style="opacity:0.8;fill:url(#radialGradient2873);fill-rule:evenodd"
             d="m 79.248,11.903 c 5.438,3.405 8.498,9.21 7.899,11.145 -0.646,2.085 -4.467,-7.233 -15.283,-10.119 -8.341,-2.225 0,-5.6489 7.384,-1.026 z"
             inkscape:connector-curvature="0" />
          <path
             id="rect2875"
             style="opacity:0.5;fill:url(#linearGradient2943);fill-rule:evenodd"
             d="m 64.359,6.2794 c -18.957,0 -34.218,12.995 -34.218,31.952 v 38.244 c 0,14.357 8.776,26.545 21.261,31.635 -8.945,-4.15 -15.222,-13.04 -15.222,-23.584 v -48.308 c 0,-14.496 11.67,-26.182 26.166,-26.182 h 4.026 c 14.496,0 26.167,11.686 26.167,26.182 v 48.308 c 0,10.544 -6.277,19.434 -15.222,23.584 12.484,-5.09 21.26,-17.278 21.26,-31.635 v -38.244 c 0,-18.957 -15.261,-31.952 -34.218,-31.952 z"
             inkscape:connector-curvature="0" />
          <path
             id="path2933"
             style="opacity:0.8;fill:url(#linearGradient2935);fill-rule:evenodd"
             d="m 64.359,4.0389 c -26.762,0 -32.937,23.315 -32.937,33.86 0,31.634 2.058,31.634 2.058,0 0,-23.199 16.463,-32.355 30.879,-32.355 14.416,2e-4 30.879,10.103 30.879,32.355 0,31.634 2.059,31.634 2.059,0 0,-10.545 -6.176,-33.86 -32.938,-33.86 z"
             inkscape:connector-curvature="0" />
          <path
             id="path2885"
             style="opacity:0.6;fill:url(#linearGradient2895);fill-rule:evenodd"
             d="m 64.359,7.0913 c -26.167,0 -32.205,22.3 -32.205,31.988 0,29.062 2.013,29.062 2.013,0 0,-21.312 16.096,-30.605 30.192,-30.605 14.096,2e-4 30.193,10.162 30.193,30.605 0,29.062 2.012,29.062 2.012,0 0,-9.688 -6.038,-31.988 -32.205,-31.988 z"
             inkscape:connector-curvature="0" />
          <path
             id="path2897"
             style="opacity:0.8;fill:#ffffff;fill-rule:evenodd"
             d="m 36.98,16.488 c -2.876,5.248 3.027,1.931 4.398,0.273 C 45.232,12.102 51.745,8.7251 57.463,7.6228 62.257,6.6985 62.988,4.8471 59.04,4.5407 51.168,3.9296 39.736,11.456 36.98,16.4877 Z"
             inkscape:connector-curvature="0" />
          <path
             id="path2901"
             style="opacity:0.6;fill:#ffffff;fill-rule:evenodd"
             d="m 32.623,25.156 c 0.305,2.564 5.264,-5.798 9.168,-9.724 4.768,-4.795 11.996,-8.1509 15.474,-8.5943 6.198,-0.7905 3.256,-3.828 -0.629,-3.0606 -14.12,2.7892 -24.79,14.839 -24.013,21.379 z"
             inkscape:connector-curvature="0" />
          <path
             id="path2909"
             style="opacity:0.8;fill:#ffffff;fill-rule:evenodd"
             d="m 91.58,16.452 c 2.894,5.237 -3.02,1.942 -4.397,0.29 C 83.312,12.097 76.786,8.7435 71.064,7.6624 66.266,6.7557 64.916,4.9102 68.863,4.5892 c 7.87,-0.64 19.942,6.8408 22.717,11.863 z"
             inkscape:connector-curvature="0" />
          <path
             id="path2911"
             style="opacity:0.6;fill:#ffffff;fill-rule:evenodd"
             d="M 95.798,24.925 C 95.503,27.491 90.514,19.146 86.595,15.235 81.809,10.458 74.569,7.1282 71.09,6.6976 64.889,5.9299 67.797,3.0024 71.707,3.6353 c 14.141,2.3015 24.844,14.747 24.091,21.29 z"
             inkscape:connector-curvature="0" />
          <path
             id="path2953"
             style="opacity:0.4;fill:url(#radialGradient2955);fill-rule:evenodd"
             d="M 49.032,11.138 C 41.943,15.187 37.953,22.09 38.734,24.39 c 0.842,2.479 5.823,-8.601 19.923,-12.032 10.873,-2.646 0,-6.7166 -9.625,-1.22 z"
             inkscape:connector-curvature="0" />
          <path
             id="path2957"
             style="opacity:0.4;fill:url(#radialGradient2959);fill-rule:evenodd"
             d="m 79.54,10.945 c 6.541,4.118 10.222,11.138 9.501,13.479 C 88.265,26.945 83.669,15.676 70.66,12.186 60.629,9.4947 70.661,5.3546 79.54,10.945 Z"
             inkscape:connector-curvature="0" />
          <path
             id="path3055"
             style="opacity:0.4;fill:url(#radialGradient508);fill-rule:evenodd"
             transform="matrix(2.0128,0,0,2.0128,3.9743,-0.012826)"
             d="M 58,62 A 28,2 0 1 1 2,62 28,2 0 1 1 58,62 Z"
             inkscape:connector-curvature="0" />
          <path
             id="path3065"
             style="opacity:0.4;fill:url(#radialGradient510);fill-rule:evenodd"
             transform="matrix(2.0128,0,0,2.516,3.9743,-34.231)"
             d="M 58,62 A 28,2 0 1 1 2,62 28,2 0 1 1 58,62 Z"
             inkscape:connector-curvature="0" />
          <path
             id="path3067"
             style="opacity:0.4;fill:url(#radialGradient3063);fill-rule:evenodd"
             transform="matrix(2.0128,0,0,2.0128,3.9743,-2.0257)"
             d="M 58,62 A 28,2 0 1 1 2,62 28,2 0 1 1 58,62 Z"
             inkscape:connector-curvature="0" />
        </g>
        <g
           id="layer1-6">
          <rect
             id="rect1941"
             style="fill:url(#linearGradient2707);fill-rule:evenodd"
             rx="0.5"
             ry="0.5"
             height="66.259003"
             width="80.513"
             y="57.359001"
             x="24.103001" />
          <rect
             id="rect2709"
             style="opacity:0.02999998;fill:url(#linearGradient2732);fill-rule:evenodd"
             rx="0.5"
             ry="0.5"
             height="66.259003"
             width="80.513"
             y="57.359001"
             x="24.103001" />
          <rect
             id="rect2734"
             style="opacity:0.02999998;fill:url(#linearGradient2736);fill-rule:evenodd"
             rx="0.5"
             ry="0.5"
             height="66.259003"
             width="80.513"
             y="57.359001"
             x="24.103001" />
          <rect
             id="rect2738"
             style="opacity:0.02999998;fill:url(#linearGradient3086);fill-rule:evenodd"
             rx="0.5"
             ry="0.5"
             height="66.259003"
             width="80.513"
             y="57.359001"
             x="24.103001" />
          <path
             id="path2727"
             style="opacity:0.5;fill:#ffffff;fill-rule:evenodd"
             d="m 26.619,57.359 c 1.81,2.122 18.145,3.786 38.655,3.786 20.229,0 36.296,-1.647 38.486,-3.727 -0.03,-0.003 -0.03,-0.059 -0.06,-0.059 z"
             inkscape:connector-curvature="0" />
          <g
             id="g2798"
             transform="matrix(1.7195,0,0,1.9816,4.4209,1.4876)">
            <path
               id="path2778"
               style="opacity:0.40277997;fill:url(#radialGradient512);fill-rule:evenodd"
               d="m 13.971,30.767 c -0.439,2.629 -0.931,19.309 0.697,22.88 1.592,3.493 1.393,-16.667 5.273,-19.84 3.921,-3.207 -5.555,-5.52 -5.97,-3.04 z"
               inkscape:connector-curvature="0" />
            <path
               id="path2790"
               style="opacity:0.3;fill:url(#radialGradient514);fill-rule:evenodd"
               d="m 13.729,30.942 c -0.508,3.069 -1.075,22.541 0.803,26.71 1.837,4.078 1.608,-19.457 6.085,-23.161 4.525,-3.744 -6.41,-6.445 -6.888,-3.549 z"
               inkscape:connector-curvature="0" />
            <path
               id="path2794"
               style="opacity:0.2;fill:url(#radialGradient516);fill-rule:evenodd"
               d="m 13.232,31.092 c -0.631,3.449 -1.335,25.325 0.998,30.009 2.283,4.582 1.998,-21.86 7.562,-26.022 5.623,-4.206 -7.966,-7.24 -8.56,-3.987 z"
               inkscape:connector-curvature="0" />
          </g>
          <g
             id="g2803"
             transform="matrix(-1.7195,0,0,1.9816,124.3,1.4876)">
            <path
               id="path2805"
               style="opacity:0.40277997;fill:url(#radialGradient2811);fill-rule:evenodd"
               d="m 13.971,30.767 c -0.439,2.629 -0.931,19.309 0.697,22.88 1.592,3.493 1.393,-16.667 5.273,-19.84 3.921,-3.207 -5.555,-5.52 -5.97,-3.04 z"
               inkscape:connector-curvature="0" />
            <path
               id="path2807"
               style="opacity:0.3;fill:url(#radialGradient2813);fill-rule:evenodd"
               d="m 13.729,30.942 c -0.508,3.069 -1.075,22.541 0.803,26.71 1.837,4.078 1.608,-19.457 6.085,-23.161 4.525,-3.744 -6.41,-6.445 -6.888,-3.549 z"
               inkscape:connector-curvature="0" />
            <path
               id="path2809"
               style="opacity:0.2;fill:url(#radialGradient2815);fill-rule:evenodd"
               d="m 13.232,31.092 c -0.631,3.449 -1.335,25.325 0.998,30.009 2.283,4.582 1.998,-21.86 7.562,-26.022 5.623,-4.206 -7.966,-7.24 -8.56,-3.987 z"
               inkscape:connector-curvature="0" />
          </g>
          <path
             id="rect3077"
             style="opacity:0.25;fill:url(#linearGradient3080);fill-rule:evenodd"
             d="m 103.12,114.72 v 7.89 c 0,0.56 -0.44,1.01 -0.97,1.01 H 26.572 c -0.537,0 -0.969,-0.45 -0.969,-1.01 V 94.596 c 0,29.514 77.517,-20.879 77.517,20.124 z"
             inkscape:connector-curvature="0" />
          <path
             id="path2768"
             style="opacity:0.5;fill:#000000;fill-rule:evenodd"
             d="m 25.647,123.62 c 1.81,-2.12 18.145,-3.79 38.655,-3.79 20.229,0 36.298,1.65 38.488,3.73 -0.04,0 -0.03,0.06 -0.06,0.06 z"
             inkscape:connector-curvature="0" />
        </g>
      </g>
      <g
         transform="matrix(0.57434054,0,0,0.57434054,-228.14011,20.953698)"
         id="text138"
         style="font-style:normal;font-weight:normal;font-size:11.71851158px;line-height:1.25;font-family:sans-serif;letter-spacing:0px;word-spacing:0px;fill:url(#linearGradient146);fill-opacity:1;stroke:none;stroke-width:0.29296282"
         aria-label="Login">
        <path
           id="path554"
           style="font-style:normal;font-variant:normal;font-weight:bold;font-stretch:normal;font-family:sans-serif;-inkscape-font-specification:'sans-serif Bold';fill:url(#linearGradient620);fill-opacity:1;stroke-width:0.29296282"
           d="m -517.85305,65.152609 h 2.20294 v 6.877759 h 3.86803 v 1.665082 h -6.07097 z"
           inkscape:connector-curvature="0" />
        <path
           id="path556"
           style="font-style:normal;font-variant:normal;font-weight:bold;font-stretch:normal;font-family:sans-serif;-inkscape-font-specification:'sans-serif Bold';fill:url(#linearGradient622);fill-opacity:1;stroke-width:0.29296282"
           d="m -507.43342,68.597211 q -0.68091,0 -1.04139,0.492086 -0.35476,0.486364 -0.35476,1.407594 0,0.921231 0.35476,1.413317 0.36048,0.486364 1.04139,0.486364 0.66947,0 1.02423,-0.486364 0.35476,-0.492086 0.35476,-1.413317 0,-0.92123 -0.35476,-1.407594 -0.35476,-0.492086 -1.02423,-0.492086 z m 0,-1.464814 q 1.65364,0 2.58059,0.892621 0.93268,0.892621 0.93268,2.471873 0,1.579253 -0.93268,2.471874 -0.92695,0.892621 -2.58059,0.892621 -1.65936,0 -2.59775,-0.892621 -0.93268,-0.892621 -0.93268,-2.471874 0,-1.579252 0.93268,-2.471873 0.93839,-0.892621 2.59775,-0.892621 z"
           inkscape:connector-curvature="0" />
        <path
           id="path558"
           style="font-style:normal;font-variant:normal;font-weight:bold;font-stretch:normal;font-family:sans-serif;-inkscape-font-specification:'sans-serif Bold';fill:url(#linearGradient624);fill-opacity:1;stroke-width:0.29296282"
           d="m -498.06662,72.608283 q -0.42342,0.560749 -0.93267,0.823958 -0.50925,0.263209 -1.17872,0.263209 -1.17299,0 -1.93973,-0.921231 -0.76674,-0.926952 -0.76674,-2.357435 0,-1.436204 0.76674,-2.351713 0.76674,-0.92123 1.93973,-0.92123 0.66947,0 1.17872,0.263208 0.50925,0.263209 0.93267,0.82968 v -0.94984 h 2.0599 v 5.761983 q 0,1.544921 -0.97845,2.357435 -0.97273,0.818236 -2.82664,0.818236 -0.6008,0 -1.16155,-0.09155 -0.56075,-0.09155 -1.12722,-0.280375 V 74.2562 q 0.53786,0.308984 1.05284,0.457754 0.51497,0.154492 1.03567,0.154492 1.00706,0 1.47625,-0.440588 0.4692,-0.440589 0.4692,-1.378985 z m -1.35037,-3.988185 q -0.63514,0 -0.9899,0.469199 -0.35476,0.469198 -0.35476,1.327487 0,0.881177 0.34332,1.338932 0.34332,0.452032 1.00134,0.452032 0.64085,0 0.99561,-0.469198 0.35476,-0.469198 0.35476,-1.321766 0,-0.858289 -0.35476,-1.327487 -0.35476,-0.469199 -0.99561,-0.469199 z"
           inkscape:connector-curvature="0" />
        <path
           id="path560"
           style="font-style:normal;font-variant:normal;font-weight:bold;font-stretch:normal;font-family:sans-serif;-inkscape-font-specification:'sans-serif Bold';fill:url(#linearGradient626);fill-opacity:1;stroke-width:0.29296282"
           d="m -494.02693,67.286889 h 2.04845 v 6.408561 h -2.04845 z m 0,-2.494761 h 2.04845 v 1.670803 h -2.04845 z"
           inkscape:connector-curvature="0" />
        <path
           id="path562"
           style="font-style:normal;font-variant:normal;font-weight:bold;font-stretch:normal;font-family:sans-serif;-inkscape-font-specification:'sans-serif Bold';fill:url(#linearGradient628);fill-opacity:1;stroke-width:0.29296282"
           d="m -483.5558,69.793094 v 3.902356 h -2.0599 v -0.635134 -2.351713 q 0,-0.82968 -0.0401,-1.144386 -0.0343,-0.314706 -0.12588,-0.463477 -0.12016,-0.200267 -0.32615,-0.308984 -0.20599,-0.114438 -0.4692,-0.114438 -0.64086,0 -1.00706,0.497808 -0.36621,0.492085 -0.36621,1.367541 v 3.152783 h -2.04845 v -6.408561 h 2.04845 v 0.938396 q 0.46348,-0.560749 0.98418,-0.823958 0.52069,-0.26893 1.1501,-0.26893 1.11006,0 1.68225,0.680909 0.57792,0.68091 0.57792,1.979788 z"
           inkscape:connector-curvature="0" />
      </g>
      <g
         aria-label="Login"
         style="font-style:normal;font-weight:normal;font-size:11.71851158px;line-height:1.25;font-family:sans-serif;letter-spacing:0px;word-spacing:0px;fill:url(#linearGradient4403);fill-opacity:1;stroke:none;stroke-width:0.29296282"
         id="g4395"
         transform="matrix(0.57434054,0,0,0.57434054,-228.14011,20.953698)">
        <path
           inkscape:connector-curvature="0"
           d="m -517.85305,65.152609 h 2.20294 v 6.877759 h 3.86803 v 1.665082 h -6.07097 z"
           style="font-style:normal;font-variant:normal;font-weight:bold;font-stretch:normal;font-family:sans-serif;-inkscape-font-specification:'sans-serif Bold';fill:url(#linearGradient4462);fill-opacity:1;stroke-width:0.29296282"
           id="path4385" />
        <path
           inkscape:connector-curvature="0"
           d="m -507.43342,68.597211 q -0.68091,0 -1.04139,0.492086 -0.35476,0.486364 -0.35476,1.407594 0,0.921231 0.35476,1.413317 0.36048,0.486364 1.04139,0.486364 0.66947,0 1.02423,-0.486364 0.35476,-0.492086 0.35476,-1.413317 0,-0.92123 -0.35476,-1.407594 -0.35476,-0.492086 -1.02423,-0.492086 z m 0,-1.464814 q 1.65364,0 2.58059,0.892621 0.93268,0.892621 0.93268,2.471873 0,1.579253 -0.93268,2.471874 -0.92695,0.892621 -2.58059,0.892621 -1.65936,0 -2.59775,-0.892621 -0.93268,-0.892621 -0.93268,-2.471874 0,-1.579252 0.93268,-2.471873 0.93839,-0.892621 2.59775,-0.892621 z"
           style="font-style:normal;font-variant:normal;font-weight:bold;font-stretch:normal;font-family:sans-serif;-inkscape-font-specification:'sans-serif Bold';fill:url(#linearGradient4464);fill-opacity:1;stroke-width:0.29296282"
           id="path4387" />
        <path
           inkscape:connector-curvature="0"
           d="m -498.06662,72.608283 q -0.42342,0.560749 -0.93267,0.823958 -0.50925,0.263209 -1.17872,0.263209 -1.17299,0 -1.93973,-0.921231 -0.76674,-0.926952 -0.76674,-2.357435 0,-1.436204 0.76674,-2.351713 0.76674,-0.92123 1.93973,-0.92123 0.66947,0 1.17872,0.263208 0.50925,0.263209 0.93267,0.82968 v -0.94984 h 2.0599 v 5.761983 q 0,1.544921 -0.97845,2.357435 -0.97273,0.818236 -2.82664,0.818236 -0.6008,0 -1.16155,-0.09155 -0.56075,-0.09155 -1.12722,-0.280375 V 74.2562 q 0.53786,0.308984 1.05284,0.457754 0.51497,0.154492 1.03567,0.154492 1.00706,0 1.47625,-0.440588 0.4692,-0.440589 0.4692,-1.378985 z m -1.35037,-3.988185 q -0.63514,0 -0.9899,0.469199 -0.35476,0.469198 -0.35476,1.327487 0,0.881177 0.34332,1.338932 0.34332,0.452032 1.00134,0.452032 0.64085,0 0.99561,-0.469198 0.35476,-0.469198 0.35476,-1.321766 0,-0.858289 -0.35476,-1.327487 -0.35476,-0.469199 -0.99561,-0.469199 z"
           style="font-style:normal;font-variant:normal;font-weight:bold;font-stretch:normal;font-family:sans-serif;-inkscape-font-specification:'sans-serif Bold';fill:url(#linearGradient4466);fill-opacity:1;stroke-width:0.29296282"
           id="path4389" />
        <path
           inkscape:connector-curvature="0"
           d="m -494.02693,67.286889 h 2.04845 v 6.408561 h -2.04845 z m 0,-2.494761 h 2.04845 v 1.670803 h -2.04845 z"
           style="font-style:normal;font-variant:normal;font-weight:bold;font-stretch:normal;font-family:sans-serif;-inkscape-font-specification:'sans-serif Bold';fill:url(#linearGradient4468);fill-opacity:1;stroke-width:0.29296282"
           id="path4391" />
        <path
           inkscape:connector-curvature="0"
           d="m -483.5558,69.793094 v 3.902356 h -2.0599 v -0.635134 -2.351713 q 0,-0.82968 -0.0401,-1.144386 -0.0343,-0.314706 -0.12588,-0.463477 -0.12016,-0.200267 -0.32615,-0.308984 -0.20599,-0.114438 -0.4692,-0.114438 -0.64086,0 -1.00706,0.497808 -0.36621,0.492085 -0.36621,1.367541 v 3.152783 h -2.04845 v -6.408561 h 2.04845 v 0.938396 q 0.46348,-0.560749 0.98418,-0.823958 0.52069,-0.26893 1.1501,-0.26893 1.11006,0 1.68225,0.680909 0.57792,0.68091 0.57792,1.979788 z"
           style="font-style:normal;font-variant:normal;font-weight:bold;font-stretch:normal;font-family:sans-serif;-inkscape-font-specification:'sans-serif Bold';fill:url(#linearGradient4470);fill-opacity:1;stroke-width:0.29296282"
           id="path4393" />
      </g>
    </g>
  </g>
</svg>
